<svg width="20" height="20" viewBox="0 0 20 20" version="1.1" xmlns="http://www.w3.org/2000/svg" xmlns:xlink="http://www.w3.org/1999/xlink" xmlns:figma="http://www.figma.com/figma/ns">
<title>icon-people</title>
<desc>Created using Figma</desc>
<g id="Canvas" transform="translate(481 284)" figma:type="canvas">
<g id="icon-people" figma:type="frame">
<g id="Vector" figma:type="vector">
<use xlink:href="#path0_fill" transform="translate(-481 -284)"/>
</g>
</g>
</g>
<g fill="red">
<path id="path0_fill" d="M 7 9.75C 6.31 9.75 5.75 10.31 5.75 11C 5.75 11.69 6.31 12.25 7 12.25C 7.69 12.25 8.25 11.69 8.25 11C 8.25 10.31 7.69 9.75 7 9.75ZM 13 9.75C 12.31 9.75 11.75 10.31 11.75 11C 11.75 11.69 12.31 12.25 13 12.25C 13.69 12.25 14.25 11.69 14.25 11C 14.25 10.31 13.69 9.75 13 9.75ZM 10 0C 4.48 0 0 4.48 0 10C 0 15.52 4.48 20 10 20C 15.52 20 20 15.52 20 10C 20 4.48 15.52 0 10 0ZM 10 18C 5.59 18 2 14.41 2 10C 2 9.71 2.02 9.42 2.05 9.14C 4.41 8.09 6.28 6.16 7.26 3.77C 9.07 6.33 12.05 8 15.42 8C 16.2 8 16.95 7.91 17.67 7.74C 17.88 8.45 18 9.21 18 10C 18 14.41 14.41 18 10 18Z"/>
</g>
</svg>
