<svg width="20" height="20" viewBox="0 0 20 20" version="1.1" xmlns="http://www.w3.org/2000/svg" xmlns:xlink="http://www.w3.org/1999/xlink" xmlns:figma="http://www.figma.com/figma/ns">
<title>icon-planets</title>
<desc>Created using Figma</desc>
<g id="Canvas" transform="translate(481 233)" figma:type="canvas">
<g id="icon-planets" figma:type="frame">
<g id="Vector" figma:type="vector">
<use xlink:href="#path0_fill" transform="translate(-481 -233)"/>
</g>
</g>
</g>
<defs>
<path id="path0_fill" d="M 9.99 0C 4.47 0 0 4.48 0 10C 0 15.52 4.47 20 9.99 20C 15.52 20 20 15.52 20 10C 20 4.48 15.52 0 9.99 0ZM 16.92 6L 13.97 6C 13.65 4.75 13.19 3.55 12.59 2.44C 14.43 3.07 15.96 4.35 16.92 6ZM 10 2.04C 10.83 3.24 11.48 4.57 11.91 6L 8.09 6C 8.52 4.57 9.17 3.24 10 2.04ZM 2.26 12C 2.1 11.36 2 10.69 2 10C 2 9.31 2.1 8.64 2.26 8L 5.64 8C 5.56 8.66 5.5 9.32 5.5 10C 5.5 10.68 5.56 11.34 5.64 12L 2.26 12ZM 3.08 14L 6.03 14C 6.35 15.25 6.81 16.45 7.41 17.56C 5.57 16.93 4.04 15.66 3.08 14L 3.08 14ZM 6.03 6L 3.08 6C 4.04 4.34 5.57 3.07 7.41 2.44C 6.81 3.55 6.35 4.75 6.03 6L 6.03 6ZM 10 17.96C 9.17 16.76 8.52 15.43 8.09 14L 11.91 14C 11.48 15.43 10.83 16.76 10 17.96ZM 12.34 12L 7.66 12C 7.57 11.34 7.5 10.68 7.5 10C 7.5 9.32 7.57 8.65 7.66 8L 12.34 8C 12.43 8.65 12.5 9.32 12.5 10C 12.5 10.68 12.43 11.34 12.34 12ZM 12.59 17.56C 13.19 16.45 13.65 15.25 13.97 14L 16.92 14C 15.96 15.65 14.43 16.93 12.59 17.56L 12.59 17.56ZM 14.36 12C 14.44 11.34 14.5 10.68 14.5 10C 14.5 9.32 14.44 8.66 14.36 8L 17.74 8C 17.9 8.64 18 9.31 18 10C 18 10.69 17.9 11.36 17.74 12L 14.36 12Z"/>
</defs>
</svg>
